PathFileType	4	(X/Y/Z)	Patient4_TMGait_0pt3_01_right_22.trc.trc
DataRate	CameraRate	NumFrames	NumMarkers	Units	OrigDataRate	OrigDataStartFrame	OrigNumFrames
51.660516605166	51.660516605166	6	33	mm	51.660516605166	36	       141
Frame#	Time	Sacral			L.Shoulder			Chest			R.Shoulder			Neck			R.ASIS			L.ASIS			R.Thigh.Superior			R.Thigh.Lateral			R.Thigh.Inferior			R.Patella			L.Thigh.Superior			L.Thigh.Lateral			L.Thigh.Inferior			L.Patella			L.Shank.Superior			L.Shank.Lateral			L.Shank.Inferior			R.Shank.Superior			R.Shank.Lateral			R.Shank.Inferior			R.Heel			R.Midfoot.Superior			R.Midfoot.Lateral			R.Toe			L.Heel			L.Midfoot.Lateral			L.Midfoot.Superior			L.Toe			L.Elbow			L.Wrist			R.Elbow			R.Wrist			
		X1	Y1	Z1	X2	Y2	Z2	X3	Y3	Z3	X4	Y4	Z4	X5	Y5	Z5	X6	Y6	Z6	X7	Y7	Z7	X8	Y8	Z8	X9	Y9	Z9	X10	Y10	Z10	X11	Y11	Z11	X12	Y12	Z12	X13	Y13	Z13	X14	Y14	Z14	X15	Y15	Z15	X16	Y16	Z16	X17	Y17	Z17	X18	Y18	Z18	X19	Y19	Z19	X20	Y20	Z20	X21	Y21	Z21	X22	Y22	Z22	X23	Y23	Z23	X24	Y24	Z24	X25	Y25	Z25	X26	Y26	Z26	X27	Y27	Z27	X28	Y28	Z28	X29	Y29	Z29	X30	Y30	Z30	X31	Y31	Z31	X32	Y32	Z32	X33	Y33	Z33	

36	40.957500000000	771.851863554595	1000.530726821279	502.566088943956	983.579346886212	1440.206208999030	381.295216986361	1039.837709946410	1365.751398335626	561.013859011646	911.296543561273	1432.814331625587	708.400927131400	926.354468099742	1494.301393747320	535.088673342023	977.380425833234	944.512684686995	664.271221711151	1013.885462987245	961.268042708495	392.546838628182	1040.580939908979	749.489062794580	632.688873836734	964.145286177271	632.054249559631	681.012898463417	1053.286713998068	587.930437935188	607.828610036396	1062.760927680175	498.208411947488	613.537482610604	1018.259148619896	728.718215502435	414.363304035275	914.565021783427	627.920508483735	338.597650310687	976.205566601490	534.289405724163	405.614978698735	959.478845631615	457.085521782477	405.126548735549	902.072281573240	400.875139677313	392.066739179994	776.370631849764	332.047237574121	334.013869633583	780.412355761190	203.699293186172	393.102337811664	1034.577827795619	408.360139770945	616.372059521510	961.809564381825	303.440875102015	673.625797929051	1007.724816648133	208.962814603501	612.539954314713	875.152309738719	45.042491876168	578.162008124040	1045.686961890272	97.754543609910	620.239794154556	955.866898443971	37.896626939548	655.268801545241	1164.217487312548	43.065178438905	653.060484465665	604.274130762510	92.183982213183	421.027804139894	678.107409126396	64.288038175744	347.064593870473	773.375725487023	104.454023342257	374.701204502581	882.247352062473	36.242413505060	357.572869554307	1132.474305192775	1155.079219432747	222.136176006680	1390.714284357612	1146.786672292302	256.470877478497	770.537238155362	1105.892240679538	771.216715915240	771.791448294614	845.678625535343	799.586088066834	
37	40.976857142857	773.135542375664	1001.443481235602	509.254091003710	982.591925969617	1440.849940939618	384.459953859814	1040.864071224511	1367.323355758633	563.891122990086	913.682013665311	1434.477348124066	712.343684336086	926.703604694397	1495.448992129142	538.377195421135	979.926711388022	945.362218512589	669.190089914835	1014.210147691960	962.295092263351	397.486081041364	1040.959504655158	748.985680028103	637.230660044773	963.016365805706	632.019633741927	684.899677529322	1051.550092895830	587.306289191952	611.600768803574	1060.002752196937	497.523762456324	616.653255835832	1021.656824513066	730.497655067064	418.580942234090	920.178481871578	628.430383394924	342.338278013640	984.273354728120	535.166064712876	408.519081964187	968.118987659151	456.777529404609	406.673020149100	908.593429120669	401.347856943089	393.745838402667	780.646533584706	336.681944278492	336.060658852975	782.075070906769	207.477588550355	393.227171045395	1031.249254775726	407.950450968235	618.799216684978	957.831791176454	303.121545150041	675.281715378723	1003.127588305091	208.779236356294	613.531021691673	869.684213456549	45.140036492017	578.213692056581	1040.216997608289	97.795626662811	620.442521765959	950.390481755354	37.949923304933	655.356671081057	1158.715857454634	42.821314235612	653.220937409984	602.763842788913	102.605332687169	420.637615131888	675.085979157481	70.850801882063	346.855686327235	772.125018306799	106.656610024881	374.096068449946	876.648789508860	35.558060746746	357.824754086321	1126.042397706246	1150.633258468394	227.292665957293	1384.584279880200	1136.331540175914	259.955428678811	775.459762055162	1107.034095939808	779.004406615921	778.874222767935	847.118521450172	809.368224880970	
38	40.996214285714	774.162173113568	1002.095193138379	515.913071912535	981.306040253212	1441.246419483843	387.568595059081	1041.660948460701	1368.587217782256	566.637630084468	915.955526315925	1435.810242831597	716.224757959660	926.879317179283	1496.338126575601	541.646836039919	982.296307584883	945.958960326161	673.941722245925	1014.186804536142	963.112676033267	402.237402238635	1041.280376110618	748.388722930586	641.592053832103	961.942671558237	631.859030806816	688.696485168167	1049.917705278293	586.615789681786	615.324464006156	1057.361006187398	496.726436583751	619.812597519600	1025.325771120515	732.270524262343	422.787917325985	926.519687804931	628.757896636143	346.028511575948	993.113012457881	536.080965271212	411.600671209959	977.664375010935	456.496726774311	408.427746453601	916.069058577792	401.752382187412	395.593738046207	786.012595490102	341.508450776076	338.115332051706	784.432171490383	211.651155941577	393.539268126152	1027.990178128538	407.420160935873	621.267212742846	953.842862759345	302.723118434251	676.967813559556	998.504516558808	208.520147257453	614.568069812945	864.151390625248	45.229937455220	578.262942782595	1034.699116988971	97.819410026933	620.674621327503	944.837707746742	37.995871245640	655.443950752372	1153.140709134172	42.571120057674	653.384435944722	602.007639682117	114.153663036015	420.311398505791	672.605323418935	78.508502585517	346.688398178115	771.300283046426	109.463608760589	373.669704363100	871.072359337662	34.748538132423	358.112702140135	1118.522114083507	1145.639650549413	232.476805967241	1377.146171209471	1123.972808969533	263.343546823822	780.547589120765	1107.797882999231	786.969570837192	786.124841370504	848.238150876315	819.454273066316	
39	41.015571428571	774.908948616322	1002.415907813766	522.513538267195	979.716405617829	1441.360046200859	390.638936687173	1042.211670801791	1369.466122075433	569.258315657562	918.097865979565	1436.722732883766	720.048801376039	926.868845424864	1496.910606701214	544.924781088588	984.476452306788	946.270127291788	678.470064895963	1013.787666393582	963.666469019351	406.730514753346	1041.629885547069	747.705550879688	645.708820719069	961.081100488699	631.548834163674	692.354610060924	1048.551526980668	585.857128358046	618.920822656384	1055.040176626252	495.784283103226	622.941376106716	1029.261534910786	734.028032584068	426.965373022124	933.578790632033	628.902558272716	349.694028893418	1002.682995071540	537.051786807702	414.921851059937	988.079770387706	456.262406511045	410.493242531095	924.474258818981	402.089407474189	397.684144534019	792.450362957187	346.522857926458	340.244425909742	787.466818855916	216.227760561146	394.119334848064	1024.958059976354	406.735459801423	623.710541755834	949.976470831282	302.245212641394	678.656596773610	993.915137894795	208.160453844096	615.611116964419	858.537406488809	45.308964897236	578.314825581855	1029.123152412172	97.827289333364	620.932259002436	939.196217924315	38.030272600374	655.529365417575	1147.486440802643	42.310397158832	653.549061906758	602.052951886358	126.726995755727	420.167932606623	670.737022063515	87.284771757760	346.639220940839	770.913310879101	112.982825462024	373.489730848222	865.611156371253	33.865481487619	358.385712331497	1109.994826864481	1140.175848208298	237.703961636529	1368.280878546182	1109.603792267116	266.663134671904	785.859817304072	1108.051499877599	795.051021840663	793.682363551595	848.908301983547	829.780271480551	
40	41.034928571429	775.356757418308	1002.347278530006	529.017937686077	977.815856333689	1441.162283800855	393.675828919948	1042.502420240244	1369.900802467198	571.748365034546	920.094762098941	1437.145655050787	723.811480367707	926.659300806953	1497.121683218162	548.222189647724	986.453057492978	946.274269481337	682.730230921193	1012.998544339912	963.909732273306	410.907387584205	1042.081127599127	746.940747584822	649.538417061899	960.561605020168	631.060714533719	695.830507773489	1047.590605749784	585.024656060469	622.320674079434	1053.221383354555	494.667919035182	625.965231514733	1033.428817192400	735.771208969684	431.099652631084	941.291632109480	628.883261973755	353.356363385267	1012.892986496704	538.106763785824	418.516076393039	999.276612293013	456.103335514669	412.933218433746	933.730054438140	402.374950240710	400.062163190848	799.876744207513	351.705147906175	342.529343899641	791.152017317267	221.182041015427	395.041400954322	1022.293058441561	405.867118883413	626.064041822865	946.352694156382	301.688429757201	680.313427819875	989.419988179967	207.682856351814	616.620236651617	852.843266476322	45.376369776317	578.371571670890	1023.492300796802	97.825313260752	621.209688808334	933.471242398785	38.051583720862	655.611613441528	1141.760283417720	42.043501578085	653.712677878365	602.939336742990	140.097208714351	420.364766145380	669.556801352205	97.100873943402	346.807465467410	770.998056678830	117.269464266280	373.616621121665	860.414857693192	33.002629642968	358.569925708229	1100.577998051467	1134.330132177242	242.987806469338	1357.849209178342	1093.150364112088	269.940068386590	791.461776686338	1107.690722923753	803.176642742087	801.698672331410	849.030164524889	840.267769663106	
41	41.054285714286	775.492643941793	1001.845955798121	535.379845858066	975.598418029007	1440.630924394116	396.671049362952	1042.521702495505	1369.853541991649	574.095899859437	921.932088538897	1437.035340016821	727.498942255974	926.237636512182	1496.941365330906	551.532940438101	988.212719223909	945.960151055167	686.691860594169	1011.822806717560	963.807236314052	414.728051901542	1042.688917641256	746.095618765680	653.055098855978	960.482970888353	630.365070347715	699.088451537264	1047.143389319064	584.109517613597	625.467388314977	1052.049569441835	493.352663956373	628.816268883562	1037.756474551621	737.504471507638	435.178259716441	949.532662984951	628.734347439127	357.022784709205	1023.600469078672	539.278874958495	422.372170269105	1011.111060614583	456.054194020785	415.751613291053	943.704581248847	402.636112478687	402.728083849823	808.145030188276	357.005157081512	345.051236052589	795.459017885372	226.438249129159	396.359682814562	1020.108067297241	404.791637006280	628.269743660150	943.068200412020	301.054587303624	681.901276185431	985.074066657922	207.078315723767	617.559678272850	847.082010462390	45.435677204252	578.432026090859	1017.818798244038	97.820046487475	621.497018395775	927.679500174729	38.061739319081	655.688968025234	1135.977454164054	41.778470965875	653.872780189657	604.702051185984	153.889299834760	421.081971559787	669.147661725012	107.748038954543	347.304182522880	771.620160813261	122.298173298186	374.093262445156	855.701506618327	32.290866442592	358.570825378380	1090.413212445393	1128.191158219863	248.337646749763	1345.686979995342	1074.596318724467	273.193707660182	797.422242067547	1106.643088539105	811.264813927198	810.335004518599	848.540718926774	850.826665719742	
